<?xml version="1.0" encoding="utf-8"?>
<!-- Generator: Adobe Illustrator 21.1.0, SVG Export Plug-In . SVG Version: 6.00 Build 0)  -->
<svg version="1.1" id="Calque_1" xmlns="http://www.w3.org/2000/svg" xmlns:xlink="http://www.w3.org/1999/xlink" x="0px" y="0px"
	 viewBox="0 0 360 360" style="enable-background:new 0 0 360 360;" xml:space="preserve">
<style type="text/css">
	.st0{fill:#EF5B45;}
</style>
<path class="st0" d="M127.6,277.9c-2.4,0-4.8-0.8-6.9-2.2c-3.6-2.6-5.4-7-4.6-11.4l9.7-56.3L84.8,168c-3.2-3.1-4.3-7.7-3-12
	c1.4-4.3,5-7.3,9.4-7.9l56.6-8.2l25.3-51.3c2-4,6-6.5,10.5-6.5c0,0,0,0,0,0c4.5,0,8.5,2.5,10.5,6.5l25.3,51.3l56.6,8.2
	c4.4,0.6,8,3.7,9.4,7.9c1.4,4.3,0.3,8.8-3,12l-40.9,39.9l9.7,56.3c0.8,4.4-1,8.8-4.6,11.4c-3.6,2.6-8.4,3-12.3,0.9L183.6,250
	L133,276.6C131.3,277.5,129.4,277.9,127.6,277.9z M102.3,162.7l36.3,35.4c2.7,2.7,4,6.5,3.4,10.3l-8.6,50l44.9-23.6
	c3.4-1.8,7.5-1.8,10.9,0l44.9,23.6l-8.6-49.9c-0.7-3.8,0.6-7.6,3.4-10.3l36.3-35.4l-50.1-7.3c-3.8-0.6-7.1-2.9-8.8-6.4l-22.4-45.4
	L161.2,149c-1.7,3.4-5,5.8-8.8,6.4L102.3,162.7z M185.6,248.9L185.6,248.9C185.6,248.9,185.6,248.9,185.6,248.9L185.6,248.9z
	 M241.1,205.6L241.1,205.6C241.1,205.7,241.1,205.7,241.1,205.6z"/>
</svg>
