<?xml version="1.0" encoding="utf-8"?>
<!-- Generator: Adobe Illustrator 21.1.0, SVG Export Plug-In . SVG Version: 6.00 Build 0)  -->
<svg version="1.1" id="Calque_1" xmlns="http://www.w3.org/2000/svg" xmlns:xlink="http://www.w3.org/1999/xlink" x="0px" y="0px"
	 viewBox="0 0 360 360" style="enable-background:new 0 0 360 360;" xml:space="preserve">
<style type="text/css">
	.st0{fill:#EF5B45;}
	.st1{fill:#FFFFFF;}
</style>
<rect x="-8.6" y="-8.5" class="st0" width="378" height="378"/>
<path class="st1" d="M133,263.3c-2,0-4.1-0.6-5.8-1.9c-3.1-2.2-4.6-5.9-3.9-9.7l8.2-47.6l-34.6-33.7c-2.7-2.6-3.7-6.5-2.5-10.1
	c1.2-3.6,4.2-6.2,8-6.7l47.8-6.9l21.4-43.3c1.7-3.4,5.1-5.5,8.9-5.5c0,0,0,0,0,0c3.8,0,7.2,2.1,8.9,5.5l21.4,43.3l47.8,6.9
	c3.7,0.5,6.8,3.1,8,6.7c1.2,3.6,0.2,7.5-2.5,10.1l-34.6,33.7l8.2,47.6c0.6,3.7-0.9,7.4-3.9,9.7c-3.1,2.2-7.1,2.5-10.4,0.7
	l-42.8-22.5l-42.8,22.5C136.2,262.9,134.6,263.3,133,263.3z M111.6,165.9l30.7,29.9c2.3,2.3,3.4,5.5,2.8,8.7l-7.2,42.2l37.9-19.9
	c2.9-1.5,6.3-1.5,9.2,0l37.9,19.9l-7.2-42.2c-0.6-3.2,0.5-6.5,2.8-8.7l30.7-29.9l-42.4-6.2c-3.2-0.5-6-2.5-7.4-5.4l-19-38.4
	l-19,38.4c-1.4,2.9-4.2,4.9-7.4,5.4L111.6,165.9z M182.1,238.8L182.1,238.8C182.1,238.8,182.1,238.8,182.1,238.8L182.1,238.8z
	 M229.1,202.2L229.1,202.2C229.1,202.2,229.1,202.2,229.1,202.2z"/>
</svg>
