<?xml version="1.0" encoding="utf-8"?>
<!-- Generator: Adobe Illustrator 21.1.0, SVG Export Plug-In . SVG Version: 6.00 Build 0)  -->
<svg version="1.1" id="Calque_1" xmlns="http://www.w3.org/2000/svg" xmlns:xlink="http://www.w3.org/1999/xlink" x="0px" y="0px"
	 viewBox="0 0 360 360" style="enable-background:new 0 0 360 360;" xml:space="preserve">
<style type="text/css">
	.st0{fill:#FF91AE;}
	.st1{fill:#FFFFFF;}
</style>
<rect x="-8.6" y="-8.5" class="st0" width="378" height="378"/>
<path class="st1" d="M124.8,264.6c-4.2,0-8.8-0.7-10-4.8c-0.8-2.5,0.3-5.1,2.7-6.6c0.6-0.8,0.6-4,0.6-6.5c0-2.9,0-6.6,0.4-11.1
	c1.7-10.2,5.7-16.7,11.9-19.8c8.2-4.1,16.7-0.3,18.5,0.6c10.3,4.2,14.7,13.1,12.1,24.4c-4.4,18.3-24.2,23.6-35.2,23.9
	C125.5,264.5,125.2,264.6,124.8,264.6z M138.6,224.5c-1.2,0-2.4,0.2-3.5,0.8c-3.7,1.9-5.3,7.3-6.1,11.6c-0.3,3.6-0.3,6.9-0.3,9.8
	c0,2.5,0,5-0.3,7.2c3.9-0.4,9.1-1.6,13.5-4.2c4.7-2.8,7.7-6.5,8.8-11.3c1.4-6.3-0.4-10-6-12.3l-0.5-0.2
	C144.2,225.7,141.5,224.5,138.6,224.5z"/>
<path class="st1" d="M161.2,238.9l-4.4-2.2l-5.6,1.5c-0.7-2.5-0.7-2.5,9.1-18.3c43-69.3,57.8-98.6,61.4-110.3
	c-14.2,13.8-49.2,64.3-79.3,111.9l-9-5.7C214,88.4,224.6,94,229.1,96.4c1.9,1,3.2,2.7,3.8,4.9c3,10.9-14.9,45.7-63.6,124.2
	C165.3,232.1,161.7,237.8,161.2,238.9z"/>
<g>
	<path class="st1" d="M149.6,201.8c0,0,13-1.7,19.4,11.8"/>
	<path class="st1" d="M164.2,215.9c-4.7-9.9-13.8-8.8-13.9-8.8l-1.4-10.5c5.8-0.8,18.5,1.3,24.8,14.8L164.2,215.9z"/>
</g>
</svg>
