<?xml version="1.0" encoding="utf-8"?>
<!-- Generator: Adobe Illustrator 21.1.0, SVG Export Plug-In . SVG Version: 6.00 Build 0)  -->
<svg version="1.1" id="Calque_1" xmlns="http://www.w3.org/2000/svg" xmlns:xlink="http://www.w3.org/1999/xlink" x="0px" y="0px"
	 viewBox="0 0 360 360" style="enable-background:new 0 0 360 360;" xml:space="preserve">
<style type="text/css">
	.st0{fill:#FFBA49;}
	.st1{fill:#FFBA49;stroke:#BCBEC0;stroke-width:2;stroke-linecap:round;stroke-miterlimit:10;}
</style>
<path class="st0" d="M210.5,163.9c-4.9,0-9.7-1-14.4-2.9c-19.3-7.9-28.5-30.1-20.5-49.3c3.8-9.3,11.1-16.6,20.4-20.5
	c9.3-3.9,19.6-3.9,28.9-0.1c19.3,7.9,28.5,30.1,20.5,49.3c-3.8,9.3-11.1,16.6-20.4,20.5C220.3,162.9,215.4,163.9,210.5,163.9z
	 M210.5,101.8c-3.2,0-6.3,0.6-9.3,1.9c-6,2.5-10.7,7.2-13.1,13.2c-2.5,6-2.5,12.6,0,18.6c2.5,6,7.2,10.7,13.2,13.1
	c6,2.5,12.6,2.5,18.6,0c6-2.5,10.7-7.2,13.1-13.2l0,0c2.5-6,2.5-12.6,0-18.6c-2.5-6-7.2-10.7-13.2-13.1
	C216.7,102.4,213.6,101.8,210.5,101.8z"/>
<path class="st0" d="M131,276.2c-2.4,0-4.9-0.7-7-2.2l-16.6-11.3c-5.5-3.8-7.1-11.2-3.6-16.9l70.4-117.6l11.6,6.9l-70,116.9l15,10.2
	l82.7-110.4l10.8,8.1l-83.2,111.1C138.5,274.5,134.8,276.2,131,276.2z M130.1,263.1C130.1,263.1,130.1,263.1,130.1,263.1
	L130.1,263.1z M115.3,252.8L115.3,252.8C115.3,252.8,115.3,252.8,115.3,252.8z"/>
<path class="st0" d="M86.3,319c-2.7,0-5.2-1.6-6.3-4.2c-1.5-3.6-1.4-8,0.6-12.8c2.7-6.8,9.5-15.3,18.5-19.2
	c8.5-3.6,13.5-16.5,14.7-21.1c0.9-3.6,4.6-5.8,8.2-4.8c3.6,0.9,5.8,4.6,4.8,8.2c-0.2,0.9-6.1,23.2-22.5,30.1
	c-7.2,3.1-12.3,12-11.9,14.5c1.5,3.4-0.1,7.3-3.6,8.7C88.1,318.8,87.2,319,86.3,319z"/>
<path class="st0" d="M239.6,139.5c-0.7,0-1.5-0.2-2.1-0.7l-43.5-35c-1.5-1.2-1.7-3.3-0.5-4.7c1.2-1.4,3.3-1.7,4.7-0.5l43.5,35
	c1.5,1.2,1.7,3.3,0.5,4.7C241.5,139.1,240.6,139.5,239.6,139.5z"/>
<path class="st0" d="M226.4,153.2c-0.7,0-1.5-0.2-2.1-0.7l-43.5-35c-1.5-1.2-1.7-3.3-0.5-4.7c1.2-1.5,3.3-1.7,4.7-0.5l43.5,35
	c1.5,1.2,1.7,3.3,0.5,4.7C228.4,152.8,227.4,153.2,226.4,153.2z"/>
<path class="st1" d="M190.6,96.3"/>
<path class="st0" d="M201.3,154.8c-0.7,0-1.5-0.2-2.1-0.7c-1.5-1.2-1.7-3.3-0.5-4.7l35-43.5c1.2-1.4,3.3-1.7,4.7-0.5
	c1.5,1.2,1.7,3.3,0.5,4.7l-35,43.5C203.3,154.4,202.3,154.8,201.3,154.8z"/>
<path class="st0" d="M187.2,144.3c-0.7,0-1.5-0.2-2.1-0.7c-1.5-1.2-1.7-3.3-0.5-4.7l35-43.5c1.2-1.4,3.3-1.7,4.7-0.5
	c1.5,1.2,1.7,3.3,0.5,4.7l-35,43.5C189.1,143.8,188.1,144.3,187.2,144.3z"/>
</svg>
