<?xml version="1.0" encoding="utf-8"?>
<!-- Generator: Adobe Illustrator 21.1.0, SVG Export Plug-In . SVG Version: 6.00 Build 0)  -->
<svg version="1.1" id="Calque_1" xmlns="http://www.w3.org/2000/svg" xmlns:xlink="http://www.w3.org/1999/xlink" x="0px" y="0px"
	 viewBox="0 0 360 360" style="enable-background:new 0 0 360 360;" xml:space="preserve">
<style type="text/css">
	.st0{fill:#FF91AE;}
</style>
<path class="st0" d="M108.2,314.3c-6.1,0-12.8-1-14.6-7c-1.1-3.7,0.5-7.5,4-9.7c0.9-1.1,0.9-5.8,0.9-9.6c0-4.3,0-9.7,0.5-16.3
	c2.5-14.9,8.4-24.4,17.4-28.9c12-5.9,24.4-0.5,27.1,0.8c15,6.2,21.5,19.2,17.7,35.7c-6.5,26.7-35.4,34.5-51.4,34.9
	C109.3,314.3,108.7,314.3,108.2,314.3z M128.3,255.7c-1.7,0-3.5,0.3-5.1,1.1c-5.4,2.7-7.8,10.7-8.9,16.9C114,279,114,283.8,114,288
	c0,3.7,0,7.3-0.5,10.5c5.8-0.6,13.3-2.4,19.7-6.2c6.9-4,11.2-9.6,12.9-16.5c2.1-9.2-0.5-14.6-8.7-17.9l-0.7-0.3
	C136.5,257.5,132.6,255.7,128.3,255.7z"/>
<path class="st0" d="M161.4,276.8l-6.4-3.2l-8.1,2.2c-1-3.6-1-3.6,13.4-26.7c62.9-101.3,84.6-144.2,89.8-161.2
	c-20.7,20.2-72,94-115.9,163.7l-13.1-8.3C238.6,56.7,254.1,65,260.7,68.5c2.7,1.4,4.7,4,5.6,7.2c4.3,16-21.7,66.9-92.9,181.5
	C167.4,266.9,162.2,275.3,161.4,276.8z"/>
<g>
	<path class="st0" d="M144.5,222.6c0,0,19-2.5,28.3,17.2"/>
	<path class="st0" d="M165.8,243.1c-6.8-14.4-20.1-12.9-20.3-12.9l-2-15.4c8.5-1.1,27,1.9,36.3,21.6L165.8,243.1z"/>
</g>
</svg>
