<?xml version="1.0" encoding="utf-8"?>
<!-- Generator: Adobe Illustrator 21.1.0, SVG Export Plug-In . SVG Version: 6.00 Build 0)  -->
<svg version="1.1" id="Calque_1" xmlns="http://www.w3.org/2000/svg" xmlns:xlink="http://www.w3.org/1999/xlink" x="0px" y="0px"
	 viewBox="0 0 360 360" style="enable-background:new 0 0 360 360;" xml:space="preserve">
<style type="text/css">
	.st0{fill:#FFBA49;}
	.st1{fill:#FFFFFF;}
	.st2{fill:#FFFFFF;stroke:#BCBEC0;stroke-width:2;stroke-linecap:round;stroke-miterlimit:10;}
</style>
<rect x="-10.4" y="-8.4" class="st0" width="378" height="378"/>
<g>
	<path class="st1" d="M222.8,148.3c-4.6,0-9.1-0.9-13.5-2.7c-18-7.4-26.6-28.1-19.2-46.1c3.6-8.7,10.4-15.5,19.1-19.2
		c8.7-3.6,18.3-3.6,27-0.1c18,7.4,26.6,28.1,19.2,46.1c-3.6,8.7-10.4,15.5-19.1,19.2C232,147.4,227.4,148.3,222.8,148.3z
		 M222.8,90.2c-3,0-5.9,0.6-8.7,1.8c-5.6,2.3-10,6.7-12.3,12.3c-2.3,5.6-2.3,11.8,0,17.4c2.3,5.6,6.7,10,12.3,12.3
		c5.6,2.3,11.8,2.3,17.4,0c5.6-2.3,10-6.7,12.3-12.3l0,0c2.3-5.6,2.3-11.8,0-17.4c-2.3-5.6-6.7-10-12.3-12.3
		C228.7,90.7,225.7,90.2,222.8,90.2z"/>
	<path class="st1" d="M148.5,253.3c-2.3,0-4.6-0.7-6.6-2l-15.5-10.6c-5.2-3.5-6.6-10.5-3.3-15.8l65.8-110l10.8,6.5l-65.5,109.4
		l14,9.6l77.3-103.2l10.1,7.6l-77.8,103.9C155.5,251.6,152,253.3,148.5,253.3z M147.7,241C147.7,241,147.7,241,147.7,241L147.7,241z
		 M133.8,231.4L133.8,231.4C133.8,231.4,133.8,231.4,133.8,231.4z"/>
	<path class="st1" d="M106.7,293.3c-2.5,0-4.9-1.5-5.9-3.9c-1.4-3.4-1.3-7.5,0.5-12c2.5-6.3,8.9-14.3,17.3-17.9
		c7.9-3.4,12.6-15.4,13.8-19.8c0.9-3.4,4.3-5.4,7.7-4.5c3.4,0.9,5.4,4.3,4.5,7.7c-0.2,0.9-5.7,21.6-21,28.2
		c-6.8,2.9-11.5,11.3-11.1,13.5c1.4,3.2-0.1,6.8-3.3,8.2C108.4,293.1,107.5,293.3,106.7,293.3z"/>
	<path class="st1" d="M250,125.4c-0.7,0-1.4-0.2-2-0.7l-40.7-32.7c-1.4-1.1-1.6-3.1-0.5-4.4c1.1-1.4,3.1-1.6,4.4-0.5l40.7,32.7
		c1.4,1.1,1.6,3.1,0.5,4.4C251.9,125,250.9,125.4,250,125.4z"/>
	<path class="st1" d="M237.7,138.2c-0.7,0-1.4-0.2-2-0.7L195,104.9c-1.4-1.1-1.6-3.1-0.5-4.4c1.1-1.4,3.1-1.6,4.4-0.5l40.7,32.7
		c1.4,1.1,1.6,3.1,0.5,4.4C239.5,137.8,238.6,138.2,237.7,138.2z"/>
	<path class="st2" d="M246.2,119.5"/>
	<path class="st1" d="M214.2,139.8c-0.7,0-1.4-0.2-2-0.7c-1.4-1.1-1.6-3.1-0.5-4.4L244.5,94c1.1-1.4,3.1-1.6,4.4-0.5
		c1.4,1.1,1.6,3.1,0.5,4.4l-32.7,40.7C216.1,139.4,215.2,139.8,214.2,139.8z"/>
	<path class="st1" d="M201,129.9c-0.7,0-1.4-0.2-2-0.7c-1.4-1.1-1.6-3.1-0.5-4.4l32.7-40.7c1.1-1.4,3.1-1.6,4.4-0.5
		c1.4,1.1,1.6,3.1,0.5,4.4l-32.7,40.7C202.8,129.5,201.9,129.9,201,129.9z"/>
</g>
</svg>
