<?xml version="1.0" encoding="utf-8"?>
<!-- Generator: Adobe Illustrator 21.1.0, SVG Export Plug-In . SVG Version: 6.00 Build 0)  -->
<svg version="1.1" id="Calque_1" xmlns="http://www.w3.org/2000/svg" xmlns:xlink="http://www.w3.org/1999/xlink" x="0px" y="0px"
	 viewBox="0 0 300 300" style="enable-background:new 0 0 300 300;" xml:space="preserve">
<g>
	<path d="M241.7,123.9c7.3-3.1,14.3-4.6,21.6-2.9c11.9,2.8,20.3,13.5,21,26.2c0.7,14.2-5.3,25.7-14.9,35.4
		c-12.6,12.7-28.3,19.6-45.3,23.8c-4.7,1.1-7.5,3.2-10,7.4c-12.3,20.5-28.6,36.5-51.9,43.9c-36,11.3-77,2.2-103.8-36.4
		c-13.8-20-22.1-42.3-27.1-65.8c-2.6-12.2-3.9-24.6-5.7-37c-2.1-14.3,4.1-24.3,16-31.6c12.1-7.4,25.3-11.5,39.1-14.1
		c41.1-7.8,81.9-7.4,122.4,4c9.2,2.6,17.9,6.4,25.7,11.8c10.3,7.1,15.4,16.6,13.4,29.3C241.9,119.7,241.9,121.5,241.7,123.9z
		 M220.9,138.7c-58.1,20.5-115.8,20.6-174.2-0.1c2,8.6,3.8,17.4,6.2,26c5.5,19.7,13.5,38.2,26.9,54c28.7,33.6,79.1,33.8,107.8,0.3
		C207.5,195.7,215.4,167.5,220.9,138.7z M135.1,135.3c22.3-0.2,45.6-2.3,67.9-10.2c5.7-2,11.3-4.9,16.3-8.2
		c6.3-4.1,6.3-8.2,0.1-12.3c-4.5-3.1-9.5-5.7-14.6-7.6c-17.5-6.7-35.9-9.3-54.6-10.4c-25.1-1.5-49.9,0-74.3,6.2
		c-9.2,2.3-18.2,5.3-26.2,10.6c-7.7,5.2-7.9,9.5-0.1,14.3c5.4,3.3,11.2,6,17.2,8C88.6,133.2,111.1,135.2,135.1,135.3z M228.4,186.4
		c4.5-2,8.9-3.7,13.1-5.9c8.4-4.4,15.8-10,20.8-18.4c2.6-4.3,4.2-8.9,3.5-14.1c-0.9-7.5-5.9-11.2-12.9-8.4c-5.1,2-9.5,5.7-14.2,8.8
		c-0.5,0.3-0.8,1.2-1,1.8C234.6,162.1,231.6,173.9,228.4,186.4z"/>
</g>
</svg>
