<?xml version="1.0" encoding="utf-8"?>
<!-- Generator: Adobe Illustrator 21.1.0, SVG Export Plug-In . SVG Version: 6.00 Build 0)  -->
<svg version="1.1" id="Calque_1" xmlns="http://www.w3.org/2000/svg" xmlns:xlink="http://www.w3.org/1999/xlink" x="0px" y="0px"
	 viewBox="0 0 300 300" style="enable-background:new 0 0 300 300;" xml:space="preserve">
<style type="text/css">
	.st0{stroke:#000000;stroke-miterlimit:10;}
</style>
<path class="st0" d="M193.9,184.9c-9.6,5.7-19.9,6.6-31.2,0c-0.5,0.5-1,1-1.5,1.5c-5.3,5.2-10.7,10.4-15.9,15.5
	c9.3,15.4,3.6,31-6.9,38.7c-11,8-26.3,7-36.4-2.6c-9.7-9.3-11.2-24.9-3.6-36.1c7.1-10.5,23.4-17.3,39.2-7.7
	c3.9-3.9,7.8-7.9,11.7-11.8c1.5-1.5,3.1-3,4.5-4.6c0.4-0.4,0.6-1.4,0.3-1.9c-5.5-10-5.5-19.8,0.4-29.6c0.7-1.2,0-1.6-0.6-2.3
	c-8.5-8.8-16.9-17.5-25.4-26.3c-1.8-1.8-3.7-3.5-5.6-5.3c-14.1,8.8-28.3,8.6-42.8-0.8c-4.5,4.6-9.1,9.3-13.6,14
	c-0.4,0.4-0.3,1.4-0.1,2c4.6,10.6-0.5,22.7-11.4,26.7c-7.6,2.8-16,0.6-21.6-5.6c-5.1-5.7-6.4-14.5-3-21.5c3.7-7.5,11-11.9,19.1-11.2
	c2.4,0.2,4.8,1.2,7.2,1.7c0.6,0.1,1.6,0,2-0.3c4.4-4.3,8.6-8.6,12.9-12.9c0.2-0.2,0.4-0.5,0.8-0.8c-6.7-10-8.9-20.9-5.4-32.6
	c2.5-8.4,7.6-15,14.9-19.8c14.2-9.5,33.6-7.6,45.6,4.1c12.2,11.8,16,32.2,3.9,48.9c10.6,11,21.2,22,31.9,33
	c4.8-2.9,9.9-4.4,15.5-4.4c5.5,0,10.5,1.7,15,4.5c5.8-5.8,11.5-11.6,17.4-17.5c-4.6-7.5-5.9-15.8-2.9-24.5c2.2-6.4,6.2-11.5,12-15
	c12-7.2,27-4.8,36.1,5.7c8.7,10.1,9.1,25.4,0.8,35.8c-8.2,10.3-23.3,15-37.6,6.4c-5.8,5.8-11.7,11.5-17.6,17.3
	c3,4.7,4.6,9.9,4.6,15.5c0,5.6-1.6,10.7-4.6,15.2c5.5,5.4,10.8,10.8,16.3,16.2c3.8-2.8,8.2-4.6,13-5.5c18.2-3.8,36.7,9.2,39.7,27.5
	c3,18.2-8.3,34.5-25.3,38.8c-21.4,5.5-42.4-11.3-42-33.4c0.1-6.4,1.8-12.3,5.3-17.6c0.7-1.1,0.8-1.8-0.2-2.8
	C203.9,194.9,198.9,189.9,193.9,184.9z M76.5,81.9c-0.1,14.2,11.2,25.6,25.2,25.6c14,0.1,25.5-11.2,25.6-25.1
	c0.1-14.2-11.2-25.7-25.4-25.7C88,56.7,76.6,67.9,76.5,81.9z M237.4,243.2c12.4,0.2,22.7-9.7,22.9-22.2c0.2-12.3-9.9-22.6-22.4-22.9
	c-12.3-0.2-22.6,9.8-22.9,22.1C214.8,232.8,224.7,243,237.4,243.2z M217.9,104.6c0.1,9.8,7.7,17.2,17.4,17c9-0.1,16.6-8,16.5-17.1
	c-0.1-9.3-7.9-17-17.1-16.8C225.4,87.9,217.8,95.5,217.9,104.6z M161.4,161.2c0.1,9.6,7.7,17.1,17.1,17c9.2-0.1,16.9-7.9,16.8-17
	c-0.1-9.4-7.8-17-17.1-16.9C168.8,144.4,161.3,152,161.4,161.2z M104.8,217.8c0.1,9.6,7.7,17.1,17.1,17c9.2-0.1,16.9-7.9,16.8-17
	c-0.1-9.4-7.9-17-17.1-16.9C112.2,201,104.7,208.6,104.8,217.8z M48.2,144.3c4.7,0,8.4-3.7,8.4-8.3c0-4.8-3.7-8.5-8.4-8.6
	c-4.7,0-8.6,3.8-8.5,8.4C39.8,140.6,43.5,144.3,48.2,144.3z"/>
</svg>
