<?xml version="1.0" encoding="utf-8"?>
<!-- Generator: Adobe Illustrator 21.1.0, SVG Export Plug-In . SVG Version: 6.00 Build 0)  -->
<svg version="1.1" id="Calque_1" xmlns="http://www.w3.org/2000/svg" xmlns:xlink="http://www.w3.org/1999/xlink" x="0px" y="0px"
	 viewBox="0 0 300 300" style="enable-background:new 0 0 300 300;" xml:space="preserve">
<style type="text/css">
	.st0{stroke:#231F20;stroke-width:0.75;stroke-miterlimit:10;}
</style>
<path class="st0" d="M148.9,44.9c10.9-8.7,23-11.4,36.4-8.1c7.7,1.9,14.1,6.2,19.4,12c0.8,0.9,2,1.7,3.1,2.1
	c22.5,7.4,35.9,28.5,33.2,52.1c-0.1,0.8,0.3,1.9,0.9,2.4c14.1,12.9,20.8,28.8,19.9,47.9c-0.5,9.4-3.4,18.1-8.1,26.2
	c-0.5,0.9-0.8,2.3-0.6,3.4c3.8,20.4-4,39.6-20.8,50.2c-4.1,2.6-7.2,5.6-9.9,9.7c-15.3,24-48.8,28.1-69.8,8.9
	c-0.4-0.4-0.8-0.7-1.1-1.1c-2.9,2.2-5.7,4.7-8.8,6.7c-21.8,14.2-52,6.8-64.8-15.9c-1.2-2-2.5-3.5-4.7-4.5
	c-18.5-9-29.2-30.3-25.4-50.6c0.4-2,0.1-3.5-0.9-5.3c-14.5-24-10.2-54,10.3-73.2c1-0.9,1.3-1.7,1.1-3c-1.3-7.7-0.6-15.3,2-22.6
	C65,69,73.5,59.3,86.6,53.9c3.3-1.4,6-3.1,8.6-5.7c14.1-14.6,35.9-16.2,52.3-4.2C147.9,44.3,148.4,44.6,148.9,44.9z M143.5,102
	c-0.7,0.4-1,0.6-1.3,0.8c-7.4,4.7-15.4,6.1-23.9,4c-13.9-3.4-21.8-15.2-21.7-29.1c0-3.4,3-5.5,6.2-4.7c2.4,0.6,3.5,2.5,3.7,5.9
	c0.4,7.6,3.3,13.7,10.5,17c7.5,3.4,14.8,2.6,21.4-2.6c2.5-2,4.8-4.5,4.8-8c0.1-8.7-0.1-17.4-0.3-26c0-0.8-0.4-1.8-1-2.3
	c-10.4-10.4-27.6-10.1-37.6,0.7c-1.7,1.8-2.7,4.5-4.7,5.8c-2.1,1.4-5,1.3-7.4,2.3C72.2,74,64.2,98.5,77,117.2
	c6.9,10.2,19.7,13.3,31.8,8.7c3.3-1.3,6.2-0.3,7.2,2.5c1.1,2.9-0.3,5.5-3.5,6.8c-7.7,2.9-15.5,3.6-23.5,1.6c-4.7-1.1-4.7-1.2-7.4,3
	c-0.5,0.9-1,1.8-1.4,2.7c-2.3,5.9-1.2,11.2,2.8,15.9c4,4.7,9,7,15.3,5.8c3.8-0.7,6.7-3,9.5-5.4c2.3-2,5.2-1.9,7.1,0.2
	c1.8,2,1.6,5.1-0.5,7.2c-0.8,0.8-1.7,1.6-2.6,2.3c-10.6,8.5-24.8,7.9-34.5-1.5c-9.7-9.3-10.8-23.4-2.8-34.3c0.5-0.7,1-1.4,1.4-2.1
	c-0.2,0.1-0.4,0.2-0.6,0.2c-3.3-4.1-6.6-8.2-10-12.4c-0.3,0.3-0.9,0.8-1.4,1.3c-15.7,16.3-16.6,41.9-2,59.7c0.9,1,0.9,1.8,0.5,3.1
	c-0.9,3.7-2,7.4-2.2,11.2c-0.3,5.9,1.2,11.6,4,16.9c2.5,4.6,6,8.4,10.3,11.7c0.1-0.5,0.1-0.8,0.1-1c-0.4-8.1,1.9-15.1,7.5-21.1
	c6.7-7,14.8-10,24.3-9.4c2.2,0.1,4.5,1.2,6.6,0.8c5.6-1,10.5-3.4,13.9-8.3c1.4-2,3.5-2.4,5.3-1.2c1.8,1.2,2.1,3.4,0.8,5.4
	c-2.2,3.5-5.3,6-8.9,8c-0.7,0.4-1.5,0.8-2.4,1.3c4.5,4,7.7,8.6,9.5,14.1c0.8,2.4-0.4,5-2.7,5.9c-2.5,1-5.1,0.2-6.3-2.1
	c-0.5-1-0.9-2-1.3-3c-3.6-7.6-10.3-11.6-18.4-11.1c-8.1,0.5-15.1,5.9-17.4,13.4c-1.5,5-0.5,9.9,1.2,14.6c4.5,12.3,13,20,25.9,22.2
	c12.7,2.1,23.3-2.2,31.4-12.2c0.7-0.9,1.2-2.3,1.2-3.5c-0.1-17.4-0.3-34.9-0.5-52.3c-0.3-26-0.6-52-0.9-77.9
	C143.5,104,143.5,103.2,143.5,102z M181.1,99.7c-1.2,0.2-2.2,0.3-3.2,0.4c-4.8,0.6-9.6,0.5-14.2-1c-2.8-1-4.1-3.5-3.3-6.2
	c0.8-2.7,3.4-4.1,6.2-3.3c6.8,2,13.3,0.5,19.6-2.1c4.5-1.9,8.2-4.9,11-8.9c1.7-2.4,3.9-3,6-1.9c3.5,2,4.1,4.4,1.8,8
	c-3.1,4.7-7.4,8.1-12.4,10.7c-1.1,0.6-1.6,1.2-1.5,2.5c1.4,17.3,18.9,21.9,30,15c2.5-1.6,4.9-3.6,5.7-6.7
	c5.6-19.6-6.9-39.8-26.9-43.4c-1.3-0.2-2.1-0.8-2.9-1.9c-9.1-14.2-28.8-16.3-40.6-4.4c-0.7,0.7-1.2,2-1.2,3
	c0.1,18.2,0.3,36.5,0.5,54.7c0.2,14.3,0.3,28.6,0.5,42.9c0,1,0.2,2.1,0.8,2.8c2.2,2.6,5.1,4.3,8.5,5c2.5,0.5,4.6,0.2,6.7-1.8
	c2.1-2.1,4.7-3.7,7.4-5c2.9-1.5,5.9-0.3,7,2.2c1.2,2.8,0,5.5-3.2,6.9c-6.4,2.8-9.9,9.3-8.7,16.1c0.6,3-1.1,5.6-4,6.2
	c-2.5,0.5-5.3-1.2-5.8-4.3c-0.5-3.3-0.5-6.7-0.8-10.2c-2.3-0.8-5-1.7-7.8-2.7c0,2.2,0,4.2,0.1,6.2c0.2,18.9,0.4,37.7,0.7,56.6
	c0,1,0.2,2.1,0.8,2.8c7.6,9.3,17.5,13.7,29.4,12.4c12.6-1.4,21.4-8.3,26.7-19.7c0.4-0.9,0.4-2.3,0.1-3.3
	c-2.5-7.9-7.1-14.4-14.4-18.4c-2.6-1.4-5.6-1.9-8.5-2.7c-0.6-0.2-1.5,0-2.2,0.3c-2.8,1.1-5.4,2.7-8.3,3.4c-3.5,0.9-7.2,1.5-10.8,1.7
	c-2.6,0.2-4.5-2.2-4.5-4.9c0-2.6,1.9-4.9,4.5-4.9c6.8,0,12.6-2.7,18-6.5c5.3-3.8,9.2-8.7,10.1-15.5c0.2-1.1,0.1-2.3,0.4-3.4
	c0.7-2.4,3-3.7,5.4-3.3c2.4,0.4,4.3,2.5,4.2,4.6c-0.3,7.1-2.6,13.6-7.2,19.1c-0.3,0.3-0.5,0.8-0.8,1.2c5.7,2.2,10.3,5.6,14.3,10
	c4,4.4,6.8,9.4,8.9,15c14.6-7.6,21.4-26.6,15.2-42.2c-0.6-1.5-0.4-2.4,0.5-3.6c11.5-15.7,12.8-32.4,3.8-49.7
	c-2.4-4.7-5.9-8.7-10-12.1c-3.5,4.4-7.9,7.1-13,9.1c0.3,0.6,0.5,1.1,0.7,1.6c2.9,6.3,2.4,12.5-1.1,18.4
	c-6.8,11.7-22.6,13.7-32.1,4.2c-2.7-2.7-2.2-6.5,1-8.2c2.6-1.4,4.5-0.2,6.4,1.5c5.2,4.5,11.9,3.7,15.8-2c2-2.8,2.4-5.9,1.1-9.2
	c-1.2-3.1-3.2-4.8-6.9-5.4c-12-1.8-20.4-10.1-23-22C181.5,102.1,181.3,100.9,181.1,99.7z"/>
</svg>
