<?xml version="1.0" encoding="utf-8"?>
<!-- Generator: Adobe Illustrator 21.1.0, SVG Export Plug-In . SVG Version: 6.00 Build 0)  -->
<svg version="1.1" id="Calque_1" xmlns="http://www.w3.org/2000/svg" xmlns:xlink="http://www.w3.org/1999/xlink" x="0px" y="0px"
	 viewBox="0 0 300 300" style="enable-background:new 0 0 300 300;" xml:space="preserve">
<g>
	<path d="M150.8,247.5c-12.8-0.3-24.7-3.6-36.1-9.1c-13.9-6.7-26-16-37-26.6c-8.5-8.2-16.2-17-23-26.5c-3.2-4.4-3.2-7.5-0.1-12
		c5.1-7.2,10.8-13.9,16.8-20.4c9.8-10.4,20.6-19.7,32.8-27.2c10.3-6.4,21.3-11.1,33.3-13.3c14.2-2.6,28-0.9,41.5,4.2
		c13.4,5.1,25.1,12.8,36,22c12.2,10.3,23,22.1,32.3,35.1c2.5,3.5,2.7,7.1,0.3,10.4c-13.6,18.9-29.6,35.3-49.3,47.8
		c-10.7,6.8-22.2,11.9-34.7,14C159.4,246.8,155.1,247,150.8,247.5z M71.4,179.2c0.3,0.4,0.5,0.7,0.7,1c7.6,9.7,16,18.6,25.4,26.6
		c9.2,7.8,19.2,14.5,30.5,19c11.2,4.4,22.7,5.9,34.6,3.3c10.2-2.2,19.4-6.5,28.1-12.2c15.1-9.9,27.6-22.5,38.8-36.6
		c0.7-0.9,0.6-1.5-0.1-2.3c-8.1-10.1-16.9-19.5-26.9-27.7c-8.9-7.3-18.3-13.5-29.1-17.7c-8.5-3.3-17.3-5-26.5-4.3
		c-10,0.7-19.2,4-28,8.7c-11.6,6.2-21.7,14.4-31,23.6C82,166.3,76.5,172.5,71.4,179.2z"/>
	<path d="M19.6,119c0.1-3.1,1.5-5.7,4.6-7.3c3.2-1.7,6.3-1.3,9.2,0.9c6.5,4.8,13,9.6,19.5,14.5c2,1.5,4,2.9,5.9,4.4
		c4,3,4.8,8.2,1.9,12.1c-2.8,3.8-8.1,4.5-12,1.6c-8.5-6.3-17-12.6-25.5-18.9C20.8,124.4,19.7,122.1,19.6,119z"/>
	<path d="M106.3,103.1c-0.2,3.9-2.8,7.2-6.5,8.2c-3.7,1-7.7-0.5-9.5-3.8c-5.3-9.6-10.5-19.3-15.6-29c-2.1-4.1-0.4-9.1,3.7-11.2
		c4.2-2.2,9.1-0.6,11.4,3.6c4.1,7.6,8.2,15.3,12.3,22.9c0.9,1.8,2,3.5,2.8,5.3C105.6,100.4,105.9,101.8,106.3,103.1z"/>
	<path d="M227.9,75.1c-0.4,1.3-0.7,2.7-1.3,3.9c-5,9.3-10,18.6-15,27.9c-2.4,4.4-7.4,6-11.6,3.7c-4.2-2.2-5.7-7.3-3.4-11.6
		c5-9.4,10.1-18.8,15.2-28.2c1.9-3.6,5.9-5.2,9.7-4.2C225.3,67.8,227.8,71.2,227.9,75.1z"/>
	<path d="M282,119.9c0,2.1-1.2,4.5-3.5,6.2c-8.5,6.3-17,12.7-25.6,19c-3.9,2.9-9.2,2.1-12-1.7c-2.8-3.8-2-9,1.9-12
		c6.7-5,13.5-10,20.2-15c1.9-1.4,3.7-2.8,5.6-4.1c2.8-1.9,5.8-2.1,8.8-0.6C280.3,113.1,282,116,282,119.9z"/>
	<path d="M143.4,78.4c0-5.4,0-10.9,0-16.3c0-3.8,2.5-6.8,6.2-7.9c3.5-1,7.5,0.4,9.3,3.7c0.8,1.3,1.3,3,1.3,4.5
		c0.1,10.7,0.1,21.4,0,32.2c0,4.7-3.7,8.5-8.3,8.5c-4.8,0-8.5-3.6-8.6-8.4C143.3,89.2,143.4,83.8,143.4,78.4L143.4,78.4z"/>
	<path d="M131.5,146.2c13.5-8.2,32.5-7.3,45.5,5c14.2,13.4,15.7,34.2,5.8,49.2c-10.1,15.3-29.6,21.3-46.5,14.4
		c-17.6-7.2-24.7-24.4-23.7-37c5.8,5.3,12.4,7.1,19.9,4.6c5-1.7,8.6-5.1,10.9-9.8C147.9,163.4,144.2,150.4,131.5,146.2z"/>
</g>
</svg>
