<?xml version="1.0" encoding="utf-8"?>
<!-- Generator: Adobe Illustrator 21.1.0, SVG Export Plug-In . SVG Version: 6.00 Build 0)  -->
<svg version="1.1" id="Calque_1" xmlns="http://www.w3.org/2000/svg" xmlns:xlink="http://www.w3.org/1999/xlink" x="0px" y="0px"
	 viewBox="0 0 360 360" style="enable-background:new 0 0 360 360;" xml:space="preserve">
<style type="text/css">
	.st0{fill:#6ACFC0;}
	.st1{fill:#FFFFFF;}
</style>
<rect x="-9" y="-8.5" class="st0" width="378" height="378"/>
<g>
	<path class="st1" d="M180,261.5c-10.7-0.3-20.7-3-30.2-7.6c-11.6-5.6-21.7-13.4-31-22.3c-7.1-6.8-13.5-14.2-19.3-22.2
		c-2.7-3.7-2.7-6.3-0.1-10c4.3-6,9-11.7,14.1-17c8.2-8.7,17.2-16.5,27.5-22.8c8.6-5.3,17.8-9.3,27.9-11.2
		c11.9-2.2,23.4-0.7,34.7,3.5c11.2,4.3,21,10.7,30.1,18.4c10.2,8.6,19.2,18.5,27,29.4c2.1,2.9,2.2,6,0.3,8.7
		c-11.3,15.8-24.7,29.5-41.2,40c-8.9,5.7-18.5,10-29.1,11.7C187.2,260.9,183.6,261.1,180,261.5z M113.6,204.4
		c0.2,0.3,0.4,0.6,0.6,0.8c6.4,8.1,13.4,15.6,21.2,22.2c7.7,6.5,16,12.2,25.5,15.9c9.4,3.7,19,4.9,28.9,2.8
		c8.5-1.8,16.2-5.4,23.5-10.2c12.6-8.3,23.1-18.8,32.5-30.6c0.6-0.8,0.5-1.2-0.1-1.9c-6.7-8.5-14.1-16.3-22.5-23.2
		c-7.4-6.1-15.3-11.3-24.3-14.8c-7.1-2.8-14.5-4.2-22.2-3.6c-8.4,0.6-16.1,3.3-23.4,7.2c-9.7,5.2-18.1,12.1-25.9,19.7
		C122.4,193.6,117.9,198.8,113.6,204.4z"/>
	<path class="st1" d="M70.3,154c0.1-2.6,1.3-4.8,3.8-6.1c2.7-1.4,5.3-1.1,7.7,0.7c5.4,4,10.9,8.1,16.3,12.1c1.6,1.2,3.3,2.4,4.9,3.7
		c3.3,2.5,4,6.9,1.6,10.1c-2.4,3.1-6.7,3.7-10.1,1.3c-7.1-5.3-14.2-10.5-21.3-15.8C71.3,158.6,70.3,156.6,70.3,154z"/>
	<path class="st1" d="M142.8,140.7c-0.2,3.3-2.3,6-5.4,6.9c-3.1,0.9-6.4-0.4-7.9-3.2c-4.4-8.1-8.8-16.1-13-24.3
		c-1.8-3.4-0.3-7.6,3.1-9.3c3.5-1.8,7.6-0.5,9.6,3c3.5,6.4,6.9,12.8,10.3,19.1c0.8,1.5,1.7,2.9,2.3,4.4
		C142.2,138.5,142.4,139.6,142.8,140.7z"/>
	<path class="st1" d="M244.5,117.3c-0.4,1.1-0.6,2.3-1.1,3.3c-4.1,7.8-8.3,15.6-12.6,23.4c-2,3.7-6.2,5-9.7,3.1
		c-3.5-1.9-4.7-6.1-2.8-9.7c4.2-7.9,8.4-15.7,12.7-23.5c1.6-3,5-4.4,8.1-3.5C242.3,111.2,244.4,114,244.5,117.3z"/>
	<path class="st1" d="M289.7,154.8c0,1.8-1,3.7-2.9,5.2c-7.1,5.3-14.3,10.6-21.4,15.9c-3.3,2.4-7.7,1.8-10-1.4
		c-2.3-3.2-1.7-7.6,1.6-10c5.6-4.2,11.3-8.4,16.9-12.6c1.6-1.2,3.1-2.4,4.7-3.5c2.3-1.6,4.8-1.8,7.3-0.5
		C288.3,149.1,289.7,151.5,289.7,154.8z"/>
	<path class="st1" d="M173.8,120.1c0-4.6,0-9.1,0-13.7c0-3.1,2.1-5.7,5.2-6.6c3-0.8,6.3,0.4,7.8,3.1c0.6,1.1,1.1,2.5,1.1,3.8
		c0.1,9,0.1,17.9,0,26.9c0,3.9-3.1,7.1-7,7.1c-4,0-7.1-3-7.2-7C173.8,129.1,173.8,124.6,173.8,120.1L173.8,120.1z"/>
	<path class="st1" d="M163.9,176.8c11.3-6.9,27.2-6.1,38.1,4.2c11.9,11.2,13.1,28.6,4.8,41.1c-8.4,12.8-24.8,17.8-38.9,12
		c-14.7-6-20.7-20.4-19.8-30.9c4.9,4.4,10.4,5.9,16.6,3.9c4.2-1.4,7.2-4.2,9.1-8.2C177.5,191.1,174.5,180.3,163.9,176.8z"/>
</g>
</svg>
