<?xml version="1.0" encoding="utf-8"?>
<!-- Generator: Adobe Illustrator 21.1.0, SVG Export Plug-In . SVG Version: 6.00 Build 0)  -->
<svg version="1.1" id="Calque_1" xmlns="http://www.w3.org/2000/svg" xmlns:xlink="http://www.w3.org/1999/xlink" x="0px" y="0px"
	 viewBox="0 0 300 300" style="enable-background:new 0 0 300 300;" xml:space="preserve">
<g>
	<path d="M37.7,224.9c0-40.8,0-81.6,0-122.4C41.4,91.6,49.3,88,60.3,88.4c13.1,0.4,26.2,0,39.3,0.2c3.4,0,5.7-1,7.8-3.7
		c4.2-5.2,8.4-10.4,13.2-14.9c2.3-2.2,6-4.1,9.2-4.2c13.6-0.4,27.2-0.4,40.8,0c3.1,0.1,6.9,1.9,9.2,4.1c4.9,4.7,8.9,10.3,13.7,15.1
		c1.8,1.8,4.8,3.3,7.2,3.3c14.4,0.3,28.9,0.3,43.4,0.1c10.6-0.1,18.5,8.1,18.3,18.6c-0.5,37.7-0.5,75.5,0,113.2
		c0.1,10.5-8.9,18.3-17.9,18c-11.4-0.5-22.8-0.2-34.2,0c-2.2,0.1-5,1.2-6.5,2.7c-30.1,30.9-77.1,31-107,0.1
		c-1.5-1.6-4.3-2.8-6.5-2.8c-10-0.3-20.1-0.6-30.1,0C49.3,239,41.7,235.1,37.7,224.9z M83.2,221.1c-6.8-16.6-8.4-32.9-3.8-49.5
		c4.7-16.9,13.9-30.7,28.3-40.5c25-17,52-19.4,77.9-4.1c36.6,21.5,45.1,54.4,32,94.3c7.5,0,14.7-0.3,21.8,0.1
		c4.8,0.2,6.2-1.6,6.2-6.2c-0.1-34.3-0.1-68.7-0.1-103c0-6.1-0.4-6.5-6.8-6.5c-15.1,0-30.3-0.2-45.4,0.1c-3.8,0.1-6.3-1.1-8.7-4
		c-4.5-5.5-9.2-11-14.1-16.1c-1.4-1.5-3.9-2.7-6-2.8c-9.7-0.3-19.4-0.3-29.1,0c-2,0.1-4.6,1.3-6,2.8c-5.3,5.5-10,11.6-15.3,17.1
		c-1.5,1.6-4.3,2.8-6.5,2.8c-15.1,0.2-30.3,0.1-45.4,0.1c-7.5,0-7.5,0-7.5,7.3c0,33.8,0,67.7,0,101.5c0,1.2-0.4,2.6,0.1,3.5
		c0.7,1.3,2,3.1,3.1,3.1C66.2,221.3,74.3,221.1,83.2,221.1z M206.4,190.7c-0.1-31.4-25.2-56.3-56.6-56.2
		c-31.2,0.1-56.2,25.4-56.1,56.8c0.1,31.1,25.7,56.2,56.9,56C181.6,247.1,206.6,221.7,206.4,190.7z"/>
	<path d="M83.2,117.9c0,5.5,0,10.5,0,16c-5.5,0-10.9,0-16.6,0c0-5.3,0-10.5,0-16C72.1,117.9,77.4,117.9,83.2,117.9z"/>
	<path d="M102.9,189.7c0.7-24.1,22-44.8,46.1-44.8c5.7,0,9.5,3.2,9.7,8.2c0.2,4.9-3.2,8.2-9.2,8.7c-17.4,1.6-28,12.1-29.7,29.2
		c-0.7,6.8-3.8,10.1-9.2,9.7C105.3,200.4,102.7,196.6,102.9,189.7z"/>
</g>
</svg>
