<?xml version="1.0" encoding="utf-8"?>
<!-- Generator: Adobe Illustrator 21.1.0, SVG Export Plug-In . SVG Version: 6.00 Build 0)  -->
<svg version="1.1" id="Calque_1" xmlns="http://www.w3.org/2000/svg" xmlns:xlink="http://www.w3.org/1999/xlink" x="0px" y="0px"
	 viewBox="0 0 300 300" style="enable-background:new 0 0 300 300;" xml:space="preserve">
<style type="text/css">
	.st0{stroke:#000000;stroke-width:0.5;stroke-miterlimit:10;}
</style>
<g>
	<path class="st0" d="M77.7,77.7c-0.4-7.2-0.4-14,5.4-19.2c4.5-3.9,9.7-4.4,15.3-4.2c11.1,0.3,15.8,6.7,16.7,23.1
		c23.2,0,46.3,0,69.9,0c-0.4-7.4-0.2-14.8,6.6-19.9c4.8-3.5,10.2-3.5,15.6-3.1c5.5,0.4,10.3,2.9,12.5,7.9c2,4.6,2.5,9.8,3.6,14.7
		c-0.3,0.2-0.6,0.4-0.9,0.6c0.9,0,1.8,0,2.8,0c7.3,0,14.6,0,21.9,0c5.2,0,7.9,2.8,7.9,8c0,50.6,0,101.2,0,151.7
		c0,5.6-2.9,8.4-8.5,8.4c-64.3,0-128.6,0-192.9,0c-6.4,0-8.8-2.4-8.8-8.8c0-50.1,0-100.2,0-150.3c0-6.5,2.5-9,9-9
		C61.7,77.7,69.5,77.7,77.7,77.7z M59.1,231.5c60.7,0,121.3,0,181.7,0c0-31.2,0-62.1,0-93c-60.7,0-121.1,0-181.7,0
		C59.1,169.5,59.1,200.4,59.1,231.5z M115,91.8c-0.1,5.5,0.6,10.9-2.6,15.5c-3.1,4.7-7.4,7.3-13.1,7.6c-5.4,0.3-10.7,0.2-15.3-3.3
		c-6.6-5.1-6.8-12.4-6.4-19.8c-6.4,0-12.5,0-18.6,0c0,10.9,0,21.5,0,32.3c60.7,0,121.2,0,181.8,0c0-10.9,0-21.6,0-32.3
		c-6.3,0-12.3,0-17.4,0c-1.2,5.3-1.7,10.6-3.7,15.1c-2.2,5.1-7.1,7.6-12.8,7.9c-5.4,0.3-10.7,0.4-15.3-3.1c-6.8-5.1-7-12.5-6.6-20
		C161.5,91.8,138.4,91.8,115,91.8z M101,84.7c0-3.5,0-7,0-10.5c0-6,0-6-6-5.9c-0.2,0-0.4,0-0.6,0c-2,0-2.8,1-2.8,2.9
		c0,8.9,0,17.9,0,26.8c0,2.1,1,3,3,3c1,0,1.9-0.1,2.9,0c2.5,0.2,3.5-1,3.4-3.5C100.9,93.2,101,89,101,84.7z M199,84.4
		c0,4.5,0,8.9,0,13.4c0,2.2,0.9,3.3,3.1,3.1c0.9,0,1.8-0.1,2.6,0c2.6,0.2,3.6-1,3.6-3.6c-0.1-8.5-0.1-16.9,0-25.4c0-2.8-1-4-3.8-3.7
		c-0.8,0.1-1.6,0.1-2.3,0c-2.4-0.1-3.3,0.9-3.3,3.3C199.1,75.9,199,80.2,199,84.4z"/>
	<path class="st0" d="M143,192.1c-7.9,0-15.6,0.2-23.2-0.1c-1.9-0.1-4.2-1.1-5.6-2.4c-2.1-1.8-2.5-4.5-1.3-7.2s3.3-4.3,6.4-4.3
		c6.6,0,13.2,0,19.8,0c1.2,0,2.3,0,3.9,0c0-2.3,0-4.5,0-6.7c0-5.3,0-10.5,0-15.8c0-4.9,2.7-8,6.9-8c4.3,0,7,2.9,7.1,7.8
		c0,7.4,0,14.8,0,22.6c1.1,0,2,0,2.9,0c6.6,0,13.2,0,19.8,0c4.6,0,7.6,2.8,7.7,7c0,4.2-3,7-7.6,7c-6.5,0.1-13,0-19.5,0
		c-1,0-1.9,0-3.2,0c0,3.5,0,6.7,0,10c0,4.1,0,8.2,0,12.3c0,5.1-2.7,8.2-7.1,8.1c-4.3-0.1-6.9-3.1-6.9-8c0-6.4,0-12.8,0-19.3
		C143,194.2,143,193.3,143,192.1z"/>
</g>
</svg>
