<?xml version="1.0" encoding="utf-8"?>
<!-- Generator: Adobe Illustrator 21.1.0, SVG Export Plug-In . SVG Version: 6.00 Build 0)  -->
<svg version="1.1" id="Calque_1" xmlns="http://www.w3.org/2000/svg" xmlns:xlink="http://www.w3.org/1999/xlink" x="0px" y="0px"
	 viewBox="0 0 360 360" style="enable-background:new 0 0 360 360;" xml:space="preserve">
<style type="text/css">
	.st0{fill:#FFFFFF;}
	.st1{fill:#32ABDF;}
</style>
<g>
	<path class="st0" d="M243,267H117c-0.4,0-0.8-0.3-0.8-0.8V98.9c0-0.4,0.3-0.8,0.8-0.8h126c0.4,0,0.8,0.3,0.8,0.8v167.4
		C243.8,266.7,243.4,267,243,267z"/>
	<path class="st1" d="M238.3,274.2H121.7c-7,0-12.7-5.7-12.7-12.7V103.7c0-7,5.7-12.7,12.7-12.7h116.5c7,0,12.7,5.7,12.7,12.7v157.9
		C251,268.5,245.3,274.2,238.3,274.2z M123.4,259.8h113.1V105.4H123.4V259.8z"/>
</g>
<g>
	<path class="st0" d="M166.4,301.7l-47-33.6c-2-1.4-3.1-3.5-3.1-5.7l0-148.9c0-6.2,8.1-9.6,13.6-5.7l47,33.6c2,1.4,3.1,3.5,3.1,5.7
		l0,148.9C179.9,302.2,171.8,305.6,166.4,301.7z"/>
	<path class="st1" d="M171.6,310.6c-3.3,0-6.6-1-9.4-3l-47-33.6c-3.8-2.7-6.1-7.1-6.1-11.6l0-148.9c0-5.4,3-10.2,8-12.8
		c5.5-2.8,12-2.4,16.9,1.2l47,33.6c3.8,2.7,6.1,7.1,6.1,11.6L187.2,296c0,5.4-3,10.2-8,12.8C176.7,310,174.1,310.6,171.6,310.6z
		 M124.7,113.3c-0.6,0-1.1,0.3-1.3,0.4l0,148.6l47.1,33.4c0.9,0.6,2.1,0.1,2.3-0.1l0-148.6l-47.1-33.4
		C125.3,113.4,125,113.3,124.7,113.3z"/>
</g>
<path class="st1" d="M163.2,216.8h-8.6c-0.2,0-0.3-0.1-0.3-0.3v-18.2c0-0.2,0.1-0.3,0.3-0.3h8.6c0.2,0,0.3,0.1,0.3,0.3v18.2
	C163.5,216.7,163.4,216.8,163.2,216.8z"/>
</svg>
