<?xml version="1.0" encoding="utf-8"?>
<!-- Generator: Adobe Illustrator 21.1.0, SVG Export Plug-In . SVG Version: 6.00 Build 0)  -->
<svg version="1.1" id="Calque_1" xmlns="http://www.w3.org/2000/svg" xmlns:xlink="http://www.w3.org/1999/xlink" x="0px" y="0px"
	 viewBox="0 0 360 360" style="enable-background:new 0 0 360 360;" xml:space="preserve">
<style type="text/css">
	.st0{fill:#32ABDF;}
	.st1{fill:#FFFFFF;}
</style>
<rect x="-8.6" y="-8.5" class="st0" width="378" height="378"/>
<g>
	<g>
		<path class="st0" d="M238,251.5H128.1c-0.4,0-0.8-0.3-0.8-0.8v-146c0-0.4,0.3-0.8,0.8-0.8H238c0.4,0,0.8,0.3,0.8,0.8v146
			C238.8,251.2,238.4,251.5,238,251.5z"/>
		<path class="st1" d="M234,257.8H132.2c-6.1,0-11.1-5-11.1-11.1V108.8c0-6.1,5-11.1,11.1-11.1H234c6.1,0,11.1,5,11.1,11.1v137.9
			C245.1,252.8,240.1,257.8,234,257.8z M133.7,245.2h98.8V110.3h-98.8V245.2z"/>
	</g>
	<g>
		<path class="st0" d="M171.2,281.8l-41.1-29.3c-1.7-1.2-2.7-3.1-2.7-5l0-130c0-5.4,7.1-8.4,11.9-5l41.1,29.3c1.7,1.2,2.7,3.1,2.7,5
			l0,130C183,282.2,175.9,285.2,171.2,281.8z"/>
		<path class="st1" d="M175.7,289.6c-2.9,0-5.8-0.9-8.2-2.6l-41.1-29.3c-3.4-2.4-5.4-6.2-5.3-10.1l0-130c0-4.7,2.6-8.9,7-11.1
			c4.8-2.5,10.5-2.1,14.8,1l41.1,29.3c3.4,2.4,5.4,6.2,5.4,10.1l0,130.1c0,4.7-2.6,8.9-7,11.2C180.2,289,177.9,289.6,175.7,289.6z
			 M134.7,117.3c-0.5,0-1,0.2-1.1,0.4l0,129.8l41.2,29.2c0.8,0.6,1.8,0.1,2-0.1l0-129.8l-41.2-29.2
			C135.3,117.3,135,117.3,134.7,117.3z"/>
	</g>
	<path class="st1" d="M168.3,207.6h-7.4c-0.2,0-0.3-0.1-0.3-0.3v-15.8c0-0.2,0.1-0.3,0.3-0.3h7.4c0.2,0,0.3,0.1,0.3,0.3v15.8
		C168.7,207.5,168.5,207.6,168.3,207.6z"/>
</g>
</svg>
