<?xml version="1.0" encoding="utf-8"?>
<!-- Generator: Adobe Illustrator 21.1.0, SVG Export Plug-In . SVG Version: 6.00 Build 0)  -->
<svg version="1.1" id="Calque_1" xmlns="http://www.w3.org/2000/svg" xmlns:xlink="http://www.w3.org/1999/xlink" x="0px" y="0px"
	 viewBox="0 0 360 360" style="enable-background:new 0 0 360 360;" xml:space="preserve">
<style type="text/css">
	.st0{fill:#AD7DE3;}
	.st1{fill:#FFFFFF;}
</style>
<g>
	<path class="st0" d="M89.5,205.9c-19.8,0-35.9-16.1-35.9-35.9c0-19.8,16.1-35.9,35.9-35.9s35.9,16.1,35.9,35.9
		C125.4,189.8,109.3,205.9,89.5,205.9z M89.5,150.7c-10.6,0-19.2,8.6-19.2,19.2c0,10.6,8.6,19.2,19.2,19.2
		c10.6,0,19.2-8.6,19.2-19.2C108.7,159.3,100.1,150.7,89.5,150.7z"/>
</g>
<g>
	<path class="st0" d="M132.9,273.4H46.1c-3.8,0-7.5-1.6-10-4.5c-2.5-2.9-3.8-6.7-3.3-10.5c3.3-28.8,27.7-50.5,56.7-50.5
		s53.4,21.7,56.7,50.5c0.4,3.8-0.8,7.6-3.3,10.5C140.3,271.8,136.7,273.4,132.9,273.4z M50,256.7h79c-3.9-18.5-20.2-32-39.5-32
		C70.2,224.6,53.8,238.2,50,256.7z"/>
</g>
<g>
	<path class="st0" d="M259,205.9c-19.8,0-35.9-16.1-35.9-35.9c0-19.8,16.1-35.9,35.9-35.9c19.8,0,35.9,16.1,35.9,35.9
		C295,189.8,278.8,205.9,259,205.9z M259,150.7c-10.6,0-19.2,8.6-19.2,19.2c0,10.6,8.6,19.2,19.2,19.2c10.6,0,19.2-8.6,19.2-19.2
		C278.2,159.3,269.6,150.7,259,150.7z"/>
</g>
<g>
	<path class="st0" d="M302.4,273.4h-86.8c-3.8,0-7.5-1.6-10-4.5c-2.5-2.9-3.7-6.7-3.3-10.5c3.3-28.8,27.7-50.5,56.7-50.5
		c29,0,53.4,21.7,56.7,50.5c0.4,3.8-0.8,7.6-3.3,10.5C309.9,271.8,306.2,273.4,302.4,273.4z M219.5,256.7h79
		c-3.9-18.5-20.2-32-39.5-32S223.4,238.2,219.5,256.7z"/>
</g>
<g>
	<path class="st0" d="M174.6,205.9c-19.8,0-35.9-16.1-35.9-35.9c0-19.8,16.1-35.9,35.9-35.9s35.9,16.1,35.9,35.9
		C210.6,189.8,194.4,205.9,174.6,205.9z M174.6,150.7c-10.6,0-19.2,8.6-19.2,19.2c0,10.6,8.6,19.2,19.2,19.2
		c10.6,0,19.2-8.6,19.2-19.2C193.8,159.3,185.2,150.7,174.6,150.7z"/>
</g>
<g>
	<path class="st1" d="M218,265c3,0,5.4-2.6,5-5.6c-2.8-24.3-23.4-43.1-48.4-43.1c-25,0-45.6,18.8-48.4,43.1c-0.3,3,2,5.6,5,5.6H218z
		"/>
	<path class="st0" d="M218,273.4h-86.8c-3.8,0-7.5-1.6-10-4.5c-2.5-2.9-3.8-6.7-3.3-10.5c3.3-28.8,27.7-50.5,56.7-50.5
		c29,0,53.4,21.7,56.7,50.5c0.4,3.8-0.8,7.6-3.3,10.5C225.5,271.7,221.8,273.4,218,273.4z M135.1,256.7h79
		c-3.9-18.5-20.2-32-39.5-32S139,238.2,135.1,256.7z"/>
</g>
</svg>
