<?xml version="1.0" encoding="utf-8"?>
<!-- Generator: Adobe Illustrator 21.1.0, SVG Export Plug-In . SVG Version: 6.00 Build 0)  -->
<svg version="1.1" id="Calque_1" xmlns="http://www.w3.org/2000/svg" xmlns:xlink="http://www.w3.org/1999/xlink" x="0px" y="0px"
	 viewBox="0 0 360 360" style="enable-background:new 0 0 360 360;" xml:space="preserve">
<style type="text/css">
	.st0{fill:#AD7DE3;}
	.st1{fill:#FFFFFF;}
</style>
<rect x="-10.4" y="-8.4" class="st0" width="378" height="378"/>
<g>
	<g>
		<path class="st1" d="M113.7,182.3c-15.2,0-27.5-12.4-27.5-27.5c0-15.2,12.4-27.5,27.5-27.5s27.5,12.4,27.5,27.5
			C141.2,169.9,128.9,182.3,113.7,182.3z M113.7,140c-8.1,0-14.7,6.6-14.7,14.7s6.6,14.7,14.7,14.7c8.1,0,14.7-6.6,14.7-14.7
			S121.8,140,113.7,140z"/>
	</g>
	<g>
		<path class="st1" d="M146.9,234H80.4c-2.9,0-5.7-1.3-7.7-3.4c-1.9-2.2-2.9-5.1-2.5-8c2.5-22.1,21.2-38.7,43.5-38.7
			s40.9,16.6,43.5,38.7c0.3,2.9-0.6,5.8-2.5,8C152.6,232.7,149.9,234,146.9,234z M83.4,221.2h60.5c-3-14.2-15.5-24.5-30.3-24.5
			C98.9,196.7,86.4,207,83.4,221.2z"/>
	</g>
	<g>
		<path class="st1" d="M243.5,182.3c-15.2,0-27.5-12.4-27.5-27.5c0-15.2,12.4-27.5,27.5-27.5c15.2,0,27.5,12.4,27.5,27.5
			C271.1,169.9,258.7,182.3,243.5,182.3z M243.5,140c-8.1,0-14.7,6.6-14.7,14.7s6.6,14.7,14.7,14.7s14.7-6.6,14.7-14.7
			S251.6,140,243.5,140z"/>
	</g>
	<g>
		<path class="st1" d="M276.8,234h-66.5c-2.9,0-5.7-1.3-7.7-3.4c-1.9-2.2-2.9-5.1-2.5-8c2.5-22.1,21.2-38.7,43.4-38.7
			s40.9,16.6,43.5,38.7c0.3,2.9-0.6,5.8-2.5,8C282.5,232.7,279.7,234,276.8,234z M213.3,221.2h60.5c-3-14.2-15.5-24.5-30.3-24.5
			S216.2,207,213.3,221.2z"/>
	</g>
	<g>
		<path class="st1" d="M178.9,182.3c-15.2,0-27.5-12.4-27.5-27.5c0-15.2,12.4-27.5,27.5-27.5s27.5,12.4,27.5,27.5
			C206.4,169.9,194.1,182.3,178.9,182.3z M178.9,140c-8.1,0-14.7,6.6-14.7,14.7s6.6,14.7,14.7,14.7s14.7-6.6,14.7-14.7
			S187,140,178.9,140z"/>
	</g>
	<g>
		<path class="st0" d="M212.1,227.6c2.3,0,4.1-2,3.8-4.3c-2.1-18.6-17.9-33-37.1-33c-19.2,0-34.9,14.4-37.1,33
			c-0.3,2.3,1.5,4.3,3.8,4.3H212.1z"/>
		<path class="st1" d="M212.1,234h-66.5c-2.9,0-5.7-1.3-7.7-3.4c-1.9-2.2-2.9-5.1-2.5-8c2.5-22.1,21.2-38.7,43.5-38.7
			c22.2,0,40.9,16.6,43.5,38.7c0.3,2.9-0.6,5.8-2.5,8C217.9,232.7,215.1,234,212.1,234z M148.6,221.2h60.5
			c-3-14.2-15.5-24.5-30.3-24.5S151.6,207,148.6,221.2z"/>
	</g>
</g>
</svg>
